<?xml version="1.0" encoding="UTF-8" standalone="no"?>
<!DOCTYPE svg PUBLIC "-//W3C//DTD SVG 1.1//EN" "http://www.w3.org/Graphics/SVG/1.1/DTD/svg11.dtd">
<svg width="100%" height="100%" viewBox="0 0 306 306" version="1.1" xmlns="http://www.w3.org/2000/svg" xmlns:xlink="http://www.w3.org/1999/xlink" xml:space="preserve" xmlns:serif="http://www.serif.com/" style="fill-rule:evenodd;clip-rule:evenodd;stroke-linejoin:round;stroke-miterlimit:2;">
    <g id="XMLID_7_">
        <g>
            <path id="XMLID_8_" d="M150.99,56.513C136.897,66.425 120.924,77.66 112.366,96.247C97.501,128.673 142.784,164.045 144.719,165.535C145.169,165.882 145.707,166.054 146.244,166.054C146.814,166.054 147.385,165.859 147.849,165.471C148.748,164.719 149.003,163.442 148.463,162.402C148.299,162.086 132.045,130.514 132.649,107.863C132.863,99.975 143.903,91.026 155.591,81.551C166.296,72.873 178.43,63.037 185.53,51.531C201.116,26.204 183.793,1.3 183.616,1.052C182.928,0.086 181.658,-0.265 180.572,0.212C179.487,0.69 178.886,1.864 179.134,3.023C179.169,3.187 182.538,19.656 173.164,36.623C169.301,43.634 160.816,49.603 150.99,56.513Z" style="fill:white;fill-rule:nonzero;"/>
            <path id="XMLID_9_" d="M210.365,67.682C211.359,66.933 211.651,65.567 211.049,64.477C210.447,63.387 209.136,62.906 207.972,63.348C205.578,64.258 149.345,85.933 149.345,112.124C149.345,130.177 157.057,139.715 162.688,146.68C164.897,149.411 166.804,151.77 167.432,153.784C169.201,159.588 165.01,170.078 163.248,173.63C162.74,174.652 162.989,175.889 163.853,176.635C164.32,177.038 164.903,177.242 165.487,177.242C165.984,177.242 166.483,177.094 166.914,176.794C167.881,176.121 190.544,160.098 186.479,140.793C184.965,133.456 181.359,128.094 178.177,123.363C173.248,116.034 169.688,110.739 175.089,100.96C181.419,89.556 210.076,67.899 210.365,67.682Z" style="fill:white;fill-rule:nonzero;"/>
            <path id="XMLID_10_" d="M63.99,177.659C63.026,180.544 63.481,183.409 65.305,185.942C71.401,194.404 92.993,199.065 126.107,199.065L126.111,199.065C130.598,199.065 135.335,198.977 140.187,198.803C193.13,196.907 212.767,180.414 213.577,179.713C214.46,178.949 214.696,177.676 214.147,176.646C213.598,175.617 212.414,175.1 211.283,175.411C192.638,180.502 157.82,182.309 133.67,182.309C106.647,182.309 92.885,180.363 89.516,178.926C91.245,176.552 101.908,172.313 115.121,169.714C116.384,169.466 117.252,168.3 117.127,167.019C117.002,165.738 115.926,164.761 114.639,164.761C106.893,164.762 68.05,165.384 63.99,177.659Z" style="fill:white;fill-rule:nonzero;"/>
            <path id="XMLID_11_" d="M241.148,160.673C230.228,160.673 219.873,166.145 219.437,166.378C218.427,166.919 217.915,168.077 218.192,169.189C218.47,170.3 219.469,171.081 220.615,171.082C220.847,171.083 243.908,171.271 245.997,184.447C247.847,195.814 224.177,214.232 214.9,220.37C213.898,221.033 213.509,222.315 213.974,223.422C214.369,224.365 215.288,224.955 216.278,224.955C216.451,224.955 216.626,224.937 216.8,224.899C219.002,224.429 270.655,213.047 265.194,182.972C261.862,164.541 250.278,160.673 241.148,160.673Z" style="fill:white;fill-rule:nonzero;"/>
            <path id="XMLID_12_" d="M205.725,216.69C205.905,215.726 205.504,214.746 204.702,214.184L192.317,205.509C191.713,205.086 190.95,204.953 190.241,205.141C190.112,205.175 177.16,208.579 158.356,210.667C150.893,211.504 142.534,211.946 134.181,211.946C115.382,211.946 103.09,209.737 101.3,208.117C101.063,207.662 101.138,207.455 101.18,207.34C101.505,206.435 103.248,205.36 104.372,204.935C105.613,204.476 106.282,203.128 105.896,201.862C105.511,200.596 104.206,199.85 102.918,200.16C90.494,203.158 84.419,207.351 84.861,212.621C85.646,221.964 107.289,226.76 125.586,228.029C128.217,228.209 131.063,228.301 134.042,228.301L134.047,228.301C164.472,228.301 203.476,218.755 203.866,218.658C204.818,218.423 205.544,217.654 205.725,216.69Z" style="fill:white;fill-rule:nonzero;"/>
            <path id="XMLID_13_" d="M112.351,236.745C113.289,236.134 113.705,234.975 113.372,233.907C113.04,232.839 112.041,232.138 110.919,232.152C109.254,232.196 94.627,232.856 93.603,242.169C93.293,244.952 94.09,247.494 95.973,249.725C101.225,255.949 115.401,259.648 139.305,261.035C142.133,261.204 145.005,261.289 147.844,261.289C178.234,261.289 198.701,251.774 199.558,251.369C200.389,250.976 200.937,250.16 200.986,249.242C201.035,248.325 200.577,247.454 199.793,246.975L184.141,237.42C183.598,237.089 182.948,236.979 182.328,237.106C182.229,237.127 172.291,239.188 157.293,241.225C154.455,241.61 150.901,241.806 146.731,241.806C131.749,241.806 115.085,239.358 111.889,237.756C111.843,237.455 111.902,237.075 112.351,236.745Z" style="fill:white;fill-rule:nonzero;"/>
            <path id="XMLID_14_" d="M133.681,290.018C203.291,289.959 240.652,277.58 247.849,269.79C250.397,267.033 250.672,264.424 250.455,262.72C249.92,258.526 246.101,255.959 245.667,255.68C244.622,255.008 243.22,255.184 242.405,256.124C241.592,257.065 241.573,258.438 242.389,259.377C242.828,259.942 243.082,260.887 241.798,262.172C238.921,264.859 209.901,273.016 161.583,275.466C154.964,275.811 148.022,275.985 140.95,275.986C97.688,275.986 66.027,270.061 61.871,266.607C63.474,264.306 74.672,260.628 86.582,258.549C87.924,258.315 88.831,257.05 88.623,255.704C88.415,254.358 87.174,253.431 85.818,253.608C85.482,253.653 84.343,253.723 83.022,253.803C63.371,255.003 40.662,257.678 39.477,267.802C39.117,270.888 40.034,273.688 42.203,276.126C47.51,282.089 62.765,290.017 133.678,290.017C133.68,290.018 133.68,290.018 133.681,290.018Z" style="fill:white;fill-rule:nonzero;"/>
            <path id="XMLID_15_" d="M261.522,271.985C260.538,271.53 259.376,271.76 258.641,272.552C258.538,272.662 248.073,283.606 216.606,290.032C204.559,292.446 181.946,293.67 149.395,293.67C116.783,293.67 85.752,292.387 85.442,292.374C84.146,292.311 83.037,293.253 82.861,294.529C82.684,295.805 83.506,297.006 84.758,297.304C85.081,297.381 117.602,305 162.068,305C183.395,305 204.148,303.267 223.752,299.849C260.305,293.441 262.864,275.316 262.955,274.548C263.082,273.474 262.504,272.44 261.522,271.985Z" style="fill:white;fill-rule:nonzero;"/>
        </g>
    </g>
</svg>
