<?xml version="1.0" encoding="UTF-8" standalone="no"?>
<!DOCTYPE svg PUBLIC "-//W3C//DTD SVG 1.1//EN" "http://www.w3.org/Graphics/SVG/1.1/DTD/svg11.dtd">
<svg width="100%" height="100%" viewBox="0 0 800 800" version="1.1" xmlns="http://www.w3.org/2000/svg" xmlns:xlink="http://www.w3.org/1999/xlink" xml:space="preserve" xmlns:serif="http://www.serif.com/" style="fill-rule:evenodd;clip-rule:evenodd;stroke-linejoin:round;stroke-miterlimit:2;">
    <g transform="matrix(1,0,0,1,5.41586,-69.6325)">
        <path d="M65.764,140.812L65.764,798.453L723.404,798.453L723.404,140.812L65.764,140.812ZM566.344,438.685C586.46,438.685 603.611,442.553 617.795,450.29C631.979,458.027 643.972,470.664 653.772,488.201L605.803,519.149C600.645,509.865 594.971,503.159 588.781,499.033C582.592,494.907 575.113,492.843 566.344,492.843C557.576,492.843 550.484,495.293 545.068,500.193C539.652,505.093 536.944,511.412 536.944,519.149C536.944,527.917 539.781,535.139 545.455,540.812C550.613,545.455 560.413,550.87 574.855,557.06L590.329,563.25C618.698,575.629 638.814,588.266 650.677,601.161C665.119,616.634 672.34,636.493 672.34,660.735C672.34,687.556 662.54,708.704 642.94,724.178C624.371,739.136 599.871,746.615 569.439,746.615C542.102,746.615 518.633,740.683 499.033,728.82C480.98,717.473 467.054,702.257 457.253,683.172L507.544,654.545C514.765,666.409 522.76,675.435 531.528,681.625C541.844,688.33 554.223,691.683 568.665,691.683C581.044,691.683 591.103,688.846 598.839,683.172C606.576,677.498 610.445,670.019 610.445,660.735C610.445,651.451 606.576,643.714 598.839,637.524C593.166,633.398 582.076,627.724 565.571,620.503L550.097,613.54C525.338,603.224 507.286,591.618 495.938,578.723C482.527,563.765 475.822,544.423 475.822,520.696C475.822,496.97 484.075,477.369 500.58,461.896C517.086,446.422 539.007,438.685 566.344,438.685ZM362.089,442.553L423.985,442.553L423.985,653.772C423.985,684.72 415.216,708.188 397.679,724.178C381.689,739.136 359.51,746.615 331.141,746.615C307.93,746.615 288.072,741.199 271.567,730.368C257.64,720.567 246.551,707.157 238.298,690.135L289.362,659.961C295.035,670.793 300.193,678.272 304.836,682.398C311.025,688.588 319.02,691.683 328.82,691.683C339.652,691.683 347.647,689.104 352.805,683.946C358.994,677.756 362.089,667.44 362.089,652.998L362.089,442.553Z" style="fill:white;fill-rule:nonzero;"/>
    </g>
</svg>
