<?xml version="1.0" encoding="UTF-8" standalone="no"?>
<!DOCTYPE svg PUBLIC "-//W3C//DTD SVG 1.1//EN" "http://www.w3.org/Graphics/SVG/1.1/DTD/svg11.dtd">
<svg width="100%" height="100%" viewBox="0 0 32 32" version="1.1" xmlns="http://www.w3.org/2000/svg" xmlns:xlink="http://www.w3.org/1999/xlink" xml:space="preserve" xmlns:serif="http://www.serif.com/" style="fill-rule:evenodd;clip-rule:evenodd;stroke-linejoin:round;stroke-miterlimit:2;">
    <g>
        <path d="M31,26C30.4,26 30,25.6 30,25L30,12C30,11.4 30.4,11 31,11C31.6,11 32,11.4 32,12L32,25C32,25.6 31.6,26 31,26Z" style="fill:white;fill-rule:nonzero;"/>
    </g>
    <g>
        <path d="M16,21C15.8,21 15.7,21 15.5,20.9L0.5,12.9C0.2,12.7 0,12.4 0,12C0,11.6 0.2,11.3 0.5,11.1L15.5,3.1C15.8,2.9 16.1,2.9 16.4,3.1L31.4,11.1C31.7,11.3 31.9,11.6 31.9,12C31.9,12.4 31.7,12.7 31.4,12.9L16.4,20.9C16.3,21 16.2,21 16,21Z" style="fill:white;fill-rule:nonzero;"/>
    </g>
    <path d="M17.4,22.6C17,22.9 16.5,23 16,23C15.5,23 15,22.9 14.6,22.6L6,18.1L6,22C6,25.1 10.9,28 16,28C21.1,28 26,25.1 26,22L26,18.1L17.4,22.6Z" style="fill:white;fill-rule:nonzero;"/>
</svg>
