<svg xmlns="http://www.w3.org/2000/svg" version="1.1" xmlns:xlink="http://www.w3.org/1999/xlink" xmlns:svgjs="http://svgjs.com/svgjs" width="3840" height="3840" preserveAspectRatio="none" viewBox="0 0 3840 3840"><g mask="url(&quot;#SvgjsMask1024&quot;)" fill="none"><rect width="3840" height="3840" x="0" y="0" fill="rgba(24, 106, 59, 1)"></rect><path d="M0,1631.061C335.694,1681.198,694.752,1706.844,994.064,1546.793C1302.479,1381.874,1559.642,1090.448,1645.183,751.33C1726.762,427.922,1548.264,107.682,1436.33,-206.513C1344.627,-463.921,1207.281,-686.82,1052.585,-912.07C877.85,-1166.498,764.988,-1510.68,472.652,-1609.705C179.804,-1708.903,-131.829,-1535.942,-413.642,-1408.735C-665.166,-1295.201,-866.878,-1115.672,-1059.539,-918.096C-1263.582,-708.848,-1513.734,-512.646,-1567.563,-225.382C-1622.014,65.202,-1478.624,350.436,-1346.833,615.078C-1218.657,872.462,-1049.496,1102.706,-819.949,1275.865C-577.244,1458.949,-300.681,1586.153,0,1631.061" fill="#13552f"></path><path d="M3840 5143.821C4141.554 5132.482 4471.217 5380.347 4724.055 5215.616 4977.151 5050.717000000001 4892.756 4652.856 5016.509 4377.294 5139.138 4104.235 5411.785 3906.59 5445.499 3609.1639999999998 5483.289 3275.7799999999997 5406.8099999999995 2924.295 5212.1900000000005 2650.99 5009.234 2365.978 4697.187 2160.87 4356.724 2080.1980000000003 4024.56 2001.492 3665.713 2056.477 3362.16 2212.6279999999997 3084.735 2355.339 2970.423 2673.946 2758.115 2902.542 2535.752 3141.965 2160.0860000000002 3269.65 2085.084 3587.681 2009.703 3907.32 2235.8199999999997 4211.687 2379.763 4506.868 2520.2070000000003 4794.872 2618.462 5155.636 2912.16 5283.747 3204.776 5411.386 3520.982 5155.817 3840 5143.821" fill="#1d7f47"></path></g><defs><mask id="SvgjsMask1024"><rect width="3840" height="3840" fill="#ffffff"></rect></mask></defs></svg>