<?xml version="1.0" encoding="UTF-8" standalone="no"?>
<!DOCTYPE svg PUBLIC "-//W3C//DTD SVG 1.1//EN" "http://www.w3.org/Graphics/SVG/1.1/DTD/svg11.dtd">
<svg width="100%" height="100%" viewBox="0 0 611 203" version="1.1" xmlns="http://www.w3.org/2000/svg" xmlns:xlink="http://www.w3.org/1999/xlink" xml:space="preserve" xmlns:serif="http://www.serif.com/" style="fill-rule:evenodd;clip-rule:evenodd;stroke-linejoin:round;stroke-miterlimit:2;">
    <g transform="matrix(1,0,0,1,-673.303,-307.666)">
        <g transform="matrix(1,0,0,1,677.493,383.479)">
            <g>
                <path d="M9.17,0L9.17,-71.059L28.52,-71.059C37.098,-71.059 43.259,-69.61 47.004,-66.714C50.749,-63.817 52.622,-59.056 52.622,-52.43C52.622,-44.876 50.061,-38.954 44.94,-34.665C39.819,-30.376 32.713,-28.231 23.622,-28.231L19.157,-28.231L19.157,0L9.17,0ZM19.157,-35.865L23.238,-35.865C29.224,-35.865 33.849,-37.242 37.114,-39.995C40.379,-42.747 42.011,-46.636 42.011,-51.662C42.011,-55.919 40.731,-58.96 38.17,-60.784C35.609,-62.609 31.336,-63.521 25.351,-63.521L19.157,-63.521L19.157,-35.865Z" style="fill:white;fill-rule:nonzero;"/>
                <path d="M90.696,-6.626C85.03,-1.408 79.573,1.2 74.324,1.2C70.003,1.2 66.418,-0.152 63.569,-2.857C60.72,-5.561 59.296,-8.978 59.296,-13.107C59.296,-18.805 61.688,-23.182 66.474,-26.239C71.259,-29.296 78.117,-30.824 87.047,-30.824L89.304,-30.824L89.304,-37.114C89.304,-43.163 86.199,-46.188 79.989,-46.188C74.996,-46.188 69.602,-44.652 63.809,-41.579L63.809,-49.405C70.179,-51.998 76.148,-53.294 81.718,-53.294C87.543,-53.294 91.84,-51.982 94.609,-49.357C97.378,-46.732 98.762,-42.651 98.762,-37.114L98.762,-13.492C98.762,-8.082 100.427,-5.377 103.755,-5.377C104.172,-5.377 104.78,-5.441 105.58,-5.569L106.252,-0.336C104.108,0.688 101.739,1.2 99.146,1.2C94.729,1.2 91.912,-1.408 90.696,-6.626ZM89.304,-11.763L89.304,-25.255L86.135,-25.351C80.949,-25.351 76.756,-24.366 73.555,-22.398C70.355,-20.429 68.754,-17.845 68.754,-14.644C68.754,-12.371 69.554,-10.451 71.155,-8.882C72.755,-7.314 74.708,-6.53 77.012,-6.53C80.949,-6.53 85.046,-8.274 89.304,-11.763Z" style="fill:white;fill-rule:nonzero;"/>
                <path d="M131.939,1.2C127.618,1.2 122.368,0.192 116.191,-1.824L116.191,-10.515C122.368,-7.442 127.746,-5.906 132.323,-5.906C135.044,-5.906 137.3,-6.642 139.093,-8.114C140.885,-9.587 141.781,-11.427 141.781,-13.636C141.781,-16.868 139.269,-19.541 134.243,-21.654L128.722,-24.006C120.56,-27.399 116.479,-32.281 116.479,-38.65C116.479,-43.195 118.087,-46.772 121.304,-49.381C124.521,-51.99 128.93,-53.294 134.532,-53.294C137.444,-53.294 141.045,-52.894 145.334,-52.094L147.303,-51.71L147.303,-43.836C142.022,-45.404 137.828,-46.188 134.724,-46.188C128.642,-46.188 125.601,-43.98 125.601,-39.562C125.601,-36.714 127.906,-34.313 132.515,-32.361L137.076,-30.44C142.23,-28.263 145.879,-25.967 148.023,-23.55C150.168,-21.134 151.24,-18.117 151.24,-14.5C151.24,-9.923 149.432,-6.162 145.815,-3.217C142.198,-0.272 137.572,1.2 131.939,1.2Z" style="fill:white;fill-rule:nonzero;"/>
                <path d="M188.594,1.2C181.552,1.2 175.71,-1.408 171.069,-6.626C166.428,-11.843 164.107,-18.421 164.107,-26.359C164.107,-34.841 166.404,-41.451 170.997,-46.188C175.59,-50.925 182,-53.294 190.226,-53.294C194.291,-53.294 198.837,-52.734 203.862,-51.614L203.862,-43.692C198.516,-45.26 194.163,-46.044 190.802,-46.044C185.969,-46.044 182.088,-44.228 179.159,-40.595C176.231,-36.962 174.766,-32.12 174.766,-26.071C174.766,-20.213 176.271,-15.476 179.279,-11.859C182.288,-8.242 186.225,-6.434 191.091,-6.434C195.412,-6.434 199.861,-7.538 204.438,-9.747L204.438,-1.584C198.324,0.272 193.043,1.2 188.594,1.2Z" style="fill:white;fill-rule:nonzero;"/>
                <path d="M245.489,-6.626C239.823,-1.408 234.366,1.2 229.117,1.2C224.795,1.2 221.21,-0.152 218.362,-2.857C215.513,-5.561 214.089,-8.978 214.089,-13.107C214.089,-18.805 216.481,-23.182 221.267,-26.239C226.052,-29.296 232.91,-30.824 241.84,-30.824L244.097,-30.824L244.097,-37.114C244.097,-43.163 240.992,-46.188 234.782,-46.188C229.789,-46.188 224.395,-44.652 218.602,-41.579L218.602,-49.405C224.971,-51.998 230.941,-53.294 236.511,-53.294C242.336,-53.294 246.633,-51.982 249.402,-49.357C252.171,-46.732 253.555,-42.651 253.555,-37.114L253.555,-13.492C253.555,-8.082 255.219,-5.377 258.548,-5.377C258.964,-5.377 259.573,-5.441 260.373,-5.569L261.045,-0.336C258.9,0.688 256.532,1.2 253.939,1.2C249.522,1.2 246.705,-1.408 245.489,-6.626ZM244.097,-11.763L244.097,-25.255L240.928,-25.351C235.742,-25.351 231.549,-24.366 228.348,-22.398C225.148,-20.429 223.547,-17.845 223.547,-14.644C223.547,-12.371 224.347,-10.451 225.948,-8.882C227.548,-7.314 229.501,-6.53 231.805,-6.53C235.742,-6.53 239.839,-8.274 244.097,-11.763Z" style="fill:white;fill-rule:nonzero;"/>
                <rect x="272.904" y="-75.812" width="9.459" height="75.812" style="fill:white;"/>
                <path d="M332.152,0L332.152,-71.059L351.501,-71.059C360.079,-71.059 366.241,-69.61 369.986,-66.714C373.731,-63.817 375.603,-59.056 375.603,-52.43C375.603,-44.876 373.043,-38.954 367.921,-34.665C362.8,-30.376 355.694,-28.231 346.604,-28.231L342.138,-28.231L342.138,0L332.152,0ZM342.138,-35.865L346.22,-35.865C352.205,-35.865 356.83,-37.242 360.095,-39.995C363.36,-42.747 364.993,-46.636 364.993,-51.662C364.993,-55.919 363.712,-58.96 361.151,-60.784C358.591,-62.609 354.318,-63.521 348.332,-63.521L342.138,-63.521L342.138,-35.865Z" style="fill:white;fill-rule:nonzero;"/>
                <path d="M425.008,-1.68C418.671,0.24 413.245,1.2 408.732,1.2C401.05,1.2 394.784,-1.352 389.935,-6.458C385.086,-11.563 382.661,-18.181 382.661,-26.311C382.661,-34.217 384.798,-40.699 389.071,-45.756C393.344,-50.813 398.809,-53.342 405.467,-53.342C411.773,-53.342 416.646,-51.102 420.087,-46.62C423.528,-42.139 425.248,-35.769 425.248,-27.511L425.2,-24.583L392.312,-24.583C393.688,-12.195 399.754,-6.002 410.509,-6.002C414.446,-6.002 419.279,-7.058 425.008,-9.17L425.008,-1.68ZM392.744,-31.688L415.742,-31.688C415.742,-41.387 412.125,-46.236 404.891,-46.236C397.625,-46.236 393.576,-41.387 392.744,-31.688Z" style="fill:white;fill-rule:nonzero;"/>
                <path d="M457.225,1.2C452.424,1.2 448.679,-0.176 445.99,-2.929C443.301,-5.682 441.957,-9.507 441.957,-14.404L441.957,-45.036L435.427,-45.036L435.427,-52.142L441.957,-52.142L441.957,-61.6L451.415,-62.513L451.415,-52.142L465.051,-52.142L465.051,-45.036L451.415,-45.036L451.415,-16.132C451.415,-9.314 454.36,-5.906 460.25,-5.906C461.498,-5.906 463.018,-6.114 464.811,-6.53L464.811,0C461.898,0.8 459.369,1.2 457.225,1.2Z" style="fill:white;fill-rule:nonzero;"/>
                <path d="M516.569,-1.68C510.231,0.24 504.805,1.2 500.292,1.2C492.61,1.2 486.345,-1.352 481.495,-6.458C476.646,-11.563 474.221,-18.181 474.221,-26.311C474.221,-34.217 476.358,-40.699 480.631,-45.756C484.904,-50.813 490.37,-53.342 497.027,-53.342C503.333,-53.342 508.206,-51.102 511.647,-46.62C515.088,-42.139 516.809,-35.769 516.809,-27.511L516.761,-24.583L483.872,-24.583C485.248,-12.195 491.314,-6.002 502.069,-6.002C506.006,-6.002 510.839,-7.058 516.569,-9.17L516.569,-1.68ZM484.304,-31.688L507.302,-31.688C507.302,-41.387 503.685,-46.236 496.451,-46.236C489.185,-46.236 485.136,-41.387 484.304,-31.688Z" style="fill:white;fill-rule:nonzero;"/>
                <path d="M533.133,0L533.133,-52.142L542.591,-52.142L542.591,-42.347C546.336,-49.645 551.778,-53.294 558.916,-53.294C559.876,-53.294 560.884,-53.214 561.941,-53.054L561.941,-44.22C560.308,-44.764 558.868,-45.036 557.619,-45.036C551.634,-45.036 546.625,-41.483 542.591,-34.377L542.591,0L533.133,0Z" style="fill:white;fill-rule:nonzero;"/>
                <path d="M587.195,1.2C582.874,1.2 577.625,0.192 571.447,-1.824L571.447,-10.515C577.625,-7.442 583.002,-5.906 587.579,-5.906C590.3,-5.906 592.557,-6.642 594.349,-8.114C596.142,-9.587 597.038,-11.427 597.038,-13.636C597.038,-16.868 594.525,-19.541 589.5,-21.654L583.978,-24.006C575.816,-27.399 571.735,-32.281 571.735,-38.65C571.735,-43.195 573.344,-46.772 576.56,-49.381C579.777,-51.99 584.186,-53.294 589.788,-53.294C592.701,-53.294 596.302,-52.894 600.591,-52.094L602.559,-51.71L602.559,-43.836C597.278,-45.404 593.085,-46.188 589.98,-46.188C583.898,-46.188 580.858,-43.98 580.858,-39.562C580.858,-36.714 583.162,-34.313 587.771,-32.361L592.333,-30.44C597.486,-28.263 601.135,-25.967 603.28,-23.55C605.424,-21.134 606.496,-18.117 606.496,-14.5C606.496,-9.923 604.688,-6.162 601.071,-3.217C597.454,-0.272 592.829,1.2 587.195,1.2Z" style="fill:white;fill-rule:nonzero;"/>
            </g>
        </g>
        <g transform="matrix(1,0,0,1,674.345,508.696)">
            <g>
                <path d="M150.513,-10.407C148.692,-3.469 142.664,0 132.43,0L109.08,0C101.795,0 98.152,-2.103 98.152,-6.309C98.152,-7.784 98.607,-9.713 99.518,-12.098L110.315,-40.197L78.053,-4.813C74.584,-0.954 70.79,0.976 66.671,0.976C65.89,0.976 65.066,0.911 64.199,0.781C59.255,0.217 56.784,-2.255 56.784,-6.635C56.784,-8.326 57.174,-10.147 57.955,-12.098L73.956,-53.401L33.823,-4.943C31.135,-1.648 27.189,0 21.985,0L8.781,0L35.059,-75.126L-1.041,-75.126L8.781,-91.518L52.231,-91.518C58.215,-91.518 61.207,-89.328 61.207,-84.948C61.207,-83.257 60.795,-81.219 59.971,-78.834L45.986,-38.506L73.956,-70.183C77.511,-74.259 80.243,-76.904 82.151,-78.118C85.317,-80.113 89.414,-81.11 94.445,-81.11C95.875,-81.11 97.372,-80.612 98.933,-79.614C101.318,-78.053 102.51,-75.733 102.51,-72.655C102.51,-70.747 102.033,-68.6 101.079,-66.215L88.46,-33.433L113.503,-58.605C117.058,-62.161 119.422,-64.307 120.592,-65.044C122.63,-66.215 125.557,-66.779 129.373,-66.736C130.891,-66.736 132.496,-66.172 134.187,-65.044C136.788,-63.353 138.089,-60.882 138.089,-57.629C138.089,-55.765 137.656,-53.705 136.788,-51.45L121.243,-10.407L150.513,-10.407Z" style="fill:rgb(64,178,82);fill-rule:nonzero;"/>
                <path d="M232.144,-10.407C231.233,-7.068 229.152,-4.445 225.899,-2.537C222.994,-0.846 219.677,0 215.948,0L179.718,0C158.643,0 148.106,-6.353 148.106,-19.058C148.106,-27.21 151.705,-33.606 158.904,-38.246C165.104,-42.236 172.476,-44.23 181.019,-44.23L190.45,-44.23C195.957,-44.23 200.792,-43.385 204.955,-41.693C210.505,-39.439 213.411,-36.013 213.671,-31.416C213.888,-26.777 211.655,-22.917 206.971,-19.839L185.442,-19.839L192.466,-33.823L178.742,-33.823L173.408,-18.147C173.105,-17.237 172.953,-16.413 172.953,-15.676C172.953,-12.163 175.772,-10.407 181.409,-10.407L232.144,-10.407Z" style="fill:rgb(64,178,82);fill-rule:nonzero;"/>
                <path d="M318.718,-10.407C316.55,-3.469 311.238,0 302.782,0L278,0C270.845,0 267.333,-2.255 267.463,-6.765C262.693,-1.171 256.297,1.626 248.275,1.626C243.028,1.626 238.778,0.152 235.526,-2.797C232.144,-5.832 230.452,-9.952 230.452,-15.155C230.452,-24.565 234.268,-31.937 241.9,-37.27C248.622,-41.91 256.882,-44.23 266.682,-44.23L280.211,-44.23L292.375,-78.574L316.051,-78.574L291.854,-10.407L318.718,-10.407ZM276.634,-33.823L260.113,-33.823L255.169,-19.839C254.736,-18.538 254.519,-17.367 254.519,-16.326C254.519,-13.421 256.362,-11.578 260.048,-10.797C261.349,-10.537 264.124,-10.407 268.373,-10.407L276.634,-33.823Z" style="fill:rgb(64,178,82);fill-rule:nonzero;"/>
                <path d="M363.338,-70.898C363.338,-66.562 361.658,-62.876 358.297,-59.841C354.937,-56.805 350.893,-55.288 346.166,-55.288C341.353,-55.288 337.266,-56.805 333.906,-59.841C330.545,-62.876 328.865,-66.562 328.865,-70.898C328.865,-75.191 330.545,-78.856 333.906,-81.891C337.266,-84.926 341.353,-86.444 346.166,-86.444C350.893,-86.444 354.937,-84.926 358.297,-81.891C361.658,-78.856 363.338,-75.191 363.338,-70.898ZM368.021,-10.407C366.894,-6.591 364.552,-3.773 360.997,-1.951C358.438,-0.65 355.663,0 352.671,0L326.978,0C320.777,0 317.677,-2.602 317.677,-7.805C317.677,-9.28 317.981,-10.862 318.588,-12.554L329.905,-44.23L353.516,-44.23L341.483,-10.407L368.021,-10.407Z" style="fill:rgb(64,178,82);fill-rule:nonzero;"/>
                <path d="M452.059,-10.407C449.977,-3.469 444.665,0 436.123,0L411.471,0C404.446,0 400.934,-2.255 400.934,-6.765C396.207,-1.388 390.397,1.301 383.502,1.301C378.429,1.301 374.309,-0.26 371.144,-3.382C367.978,-6.504 366.395,-10.581 366.395,-15.611C366.395,-24.674 369.864,-31.828 376.802,-37.075C383.09,-41.845 390.874,-44.23 400.153,-44.23L437.294,-44.23L425.065,-10.407L452.059,-10.407ZM410.105,-33.823L395.73,-33.823L391.177,-18.668C390.917,-17.714 390.787,-16.847 390.787,-16.066C390.787,-12.293 394.473,-10.407 401.845,-10.407L410.105,-33.823Z" style="fill:rgb(64,178,82);fill-rule:nonzero;"/>
            </g>
        </g>
    </g>
</svg>
