<svg xmlns="http://www.w3.org/2000/svg" viewBox="0 0 1440 320">
  <path fill="#00cba9" fill-opacity="1" d="M0,0L17.1,0C34.3,0,69,0,103,16C137.1,32,171,64,206,96C240,128,274,160,309,154.7C342.9,149,377,107,411,106.7C445.7,107,480,149,514,181.3C548.6,213,583,235,617,224C651.4,213,686,171,720,149.3C754.3,128,789,128,823,122.7C857.1,117,891,107,926,101.3C960,96,994,96,1029,101.3C1062.9,107,1097,117,1131,133.3C1165.7,149,1200,171,1234,165.3C1268.6,160,1303,128,1337,112C1371.4,96,1406,96,1423,96L1440,96L1440,320L1422.9,320C1405.7,320,1371,320,1337,320C1302.9,320,1269,320,1234,320C1200,320,1166,320,1131,320C1097.1,320,1063,320,1029,320C994.3,320,960,320,926,320C891.4,320,857,320,823,320C788.6,320,754,320,720,320C685.7,320,651,320,617,320C582.9,320,549,320,514,320C480,320,446,320,411,320C377.1,320,343,320,309,320C274.3,320,240,320,206,320C171.4,320,137,320,103,320C68.6,320,34,320,17,320L0,320Z"></path>
</svg>